HIERARCHY
ROOT root
{
	OFFSET	0	13.1	24.9
	CHANNELS 6  Xposition Yposition Zposition Xrotation Yrotation Zrotation
	JOINT spine_1
	{
		OFFSET	0	9.99999	0
		CHANNELS 3  Xrotation Yrotation Zrotation
		JOINT spine_2
		{
			OFFSET	0	112	-10
			CHANNELS 3  Xrotation Yrotation Zrotation
			JOINT spine_3
			{
				OFFSET	0	206.5	19.3
				CHANNELS 3  Xrotation Yrotation Zrotation
				JOINT spine_4
				{
					OFFSET	0	110.4	14.6
					CHANNELS 3  Xrotation Yrotation Zrotation
					JOINT neck_1
					{
						OFFSET	0	71.8	-50.3
						CHANNELS 3  Xrotation Yrotation Zrotation
						JOINT neck_2
						{
							OFFSET	0	86.2	-25.8
							CHANNELS 3  Xrotation Yrotation Zrotation
							JOINT head_ee
							{
								OFFSET	0	179.8	-8.7
								CHANNELS 3  Xrotation Yrotation Zrotation
								End Site
								{
									OFFSET	1	0	0
								}
							}
						}
					}
					JOINT left_clavicle
					{
						OFFSET	-43.2	22.4	-70.8
						CHANNELS 3  Xrotation Yrotation Zrotation
						JOINT left_shoulder
						{
							OFFSET	-93.9	-5.79999	48.7
							CHANNELS 3  Xrotation Yrotation Zrotation
							JOINT left_elbow
							{
								OFFSET	-291.4	-30.8	15.2
								CHANNELS 3  Xrotation Yrotation Zrotation
								JOINT left_lowarm_twist
								{
									OFFSET	-110.7	-3.89999	13.6
									CHANNELS 3  Xrotation Yrotation Zrotation
									JOINT left_hand
									{
										OFFSET	-110.7	-3.89999	13.6
										CHANNELS 3  Xrotation Yrotation Zrotation
										JOINT left_ee
										{
											OFFSET	-80.8	-5.10001	12.1
											CHANNELS 3  Xrotation Yrotation Zrotation
											End Site
											{
												OFFSET	1	0	0
											}
										}
									}
								}
							}
						}
					}
					JOINT right_clavicle
					{
						OFFSET	43.2	22.4	-70.8
						CHANNELS 3  Xrotation Yrotation Zrotation
						JOINT right_shoulder
						{
							OFFSET	93.9	-5.79999	48.7
							CHANNELS 3  Xrotation Yrotation Zrotation
							JOINT right_elbow
							{
								OFFSET	291.4	-30.8	15.2
								CHANNELS 3  Xrotation Yrotation Zrotation
								JOINT right_lowarm_twist
								{
									OFFSET	110.7	-3.89999	13.6
									CHANNELS 3  Xrotation Yrotation Zrotation
									JOINT right_hand
									{
										OFFSET	110.7	-3.89999	13.6
										CHANNELS 3  Xrotation Yrotation Zrotation
										JOINT right_ee
										{
											OFFSET	80.8	-5.10001	12.1
											CHANNELS 3  Xrotation Yrotation Zrotation
											End Site
											{
												OFFSET	1	0	0
											}
										}
									}
								}
							}
						}
					}
				}
			}
		}
	}
	JOINT left_hip
	{
		OFFSET	-82.8	-127.5	0.300001
		CHANNELS 3  Xrotation Yrotation Zrotation
		JOINT left_knee
		{
			OFFSET	-28.2	-396.7	2.2
			CHANNELS 3  Xrotation Yrotation Zrotation
			JOINT left_ankle
			{
				OFFSET	-11.7	-411.3	35.4
				CHANNELS 3  Xrotation Yrotation Zrotation
				JOINT left_toes
				{
					OFFSET	0	-60	-88.6
					CHANNELS 3  Xrotation Yrotation Zrotation
					JOINT left_foot_ee
					{
						OFFSET	-22.5	-16.5	-42.2
						CHANNELS 3  Xrotation Yrotation Zrotation
						End Site
						{
							OFFSET	1	0	0
						}
					}
				}
			}
		}
	}
	JOINT right_hip
	{
		OFFSET	82.8	-127.5	0.300001
		CHANNELS 3  Xrotation Yrotation Zrotation
		JOINT right_knee
		{
			OFFSET	28.2	-396.7	2.2
			CHANNELS 3  Xrotation Yrotation Zrotation
			JOINT right_ankle
			{
				OFFSET	11.7	-411.3	35.4
				CHANNELS 3  Xrotation Yrotation Zrotation
				JOINT right_toes
				{
					OFFSET	0	-60	-88.6
					CHANNELS 3  Xrotation Yrotation Zrotation
					JOINT right_foot_ee
					{
						OFFSET	22.5	-16.5	-42.2
						CHANNELS 3  Xrotation Yrotation Zrotation
						End Site
						{
							OFFSET	1	0	0
						}
					}
				}
			}
		}
	}
}
MOTION
Frames: 14
Frame Time: 0.02
800.913264648 612.583 -1845.22767888 -8.61485601342 45.0283283355 10.7915172403 5.27092 -0.315239 -3.02262 5.27599 -0.122353 -3.03654 5.27776 0.241117 -3.02943 5.26503 -0.240125 -3.02951 -8.47782 3.62319 6.37675 -8.36685 2.30703 7.10269 -0.0 0.0 -0.0 10.384 -3.91673 20.6156 -13.3139 -33.492 56.8786 0.977087 -25.8274 0.224034 42.1567 -0.466169 -5.24532 0.177279 -11.3618 -3.63496 -0.0 0.0 -0.0 2.88552 -21.0545 -6.60871 -32.2734 30.7978 -53.848 0.50042 13.9228 -0.0611019 52.9091 1.18485 6.41681 -0.0499916 7.81959 3.65901 0.0 0.0 0.0 16.3011 -4.46533 -0.579439 3.34617 -0.152188 -0.490803 7.76107 -15.4008 -1.21117 -2.47141 0.0 0.0 -0.0 0.0 -0.0 28.3537 -6.88859 7.86545 -59.2783 2.12256 -8.44545 18.934 4.85016 2.65616 23.526 -0.0 -0.0 0.0 0.0 0.0 
799.316633549 613.343 -1852.74852928 -9.1582419683 44.6501739814 11.5555863925 5.12889 -0.507942 -3.2274 5.13464 -0.301656 -3.25314 5.14659 0.0961972 -3.26567 5.13196 -0.420485 -3.23994 -7.84532 4.46024 8.71708 -7.63632 2.11559 9.60071 -0.0 0.0 -0.0 10.657 -3.00622 21.1669 -12.2716 -33.3632 55.1724 1.01448 -26.6811 0.240578 43.1377 -0.522449 -5.35749 0.157008 -11.0418 -3.63517 -0.0 0.0 -0.0 2.6001 -18.1803 -6.0796 -33.8579 31.7856 -54.9144 0.543182 15.0604 -0.0718032 56.1391 1.44251 6.74056 0.170762 7.87224 2.18909 0.0 0.0 0.0 17.1929 -4.19236 -1.2586 1.82826 -0.0795932 -0.269244 9.67092 -18.2774 -1.53333 -2.77955 0.0 0.0 -0.0 0.0 -0.0 29.1665 -9.66351 7.45436 -51.2769 1.33519 -7.49744 17.3173 6.03688 2.45939 22.2545 -0.0 -0.0 0.0 0.0 0.0 
795.963209963 613.313 -1857.4860822 -9.77175616656 44.6295621481 11.9854064158 5.26064 -0.519148 -3.23312 5.2664 -0.312476 -3.25957 5.27877 0.0786625 -3.27355 5.26409 -0.439044 -3.24496 -8.34956 3.73393 8.26924 -8.15951 1.16118 8.99721 -0.0 0.0 -0.0 10.8887 -4.56278 21.7195 -11.8315 -33.1305 54.6087 1.05253 -27.5364 0.257913 44.366 -0.595618 -5.49658 -0.0962374 -12.0346 -5.7725 -0.0 0.0 -0.0 2.6091 -17.3983 -6.05935 -32.3559 29.1027 -57.1811 0.484248 13.4896 -0.0572702 56.2435 1.45114 6.75079 0.297506 10.7544 2.56312 0.0 0.0 0.0 16.5409 -5.76992 -1.54798 2.93348 -0.131869 -0.430752 8.81623 -18.3373 -1.40326 -2.72166 0.0 0.0 -0.0 0.0 -0.0 30.0373 -12.2189 7.8298 -46.3686 0.920812 -6.86574 16.3417 5.38852 2.32508 21.6517 -0.0 -0.0 0.0 0.0 0.0 
790.671774741 614.656 -1864.53845924 -10.2089057648 45.5929883686 12.2723678016 5.26111 -0.631292 -3.15891 5.26656 -0.429108 -3.19264 5.28531 -0.0456814 -3.22099 5.27126 -0.553544 -3.17345 -7.5939 3.34592 8.94721 -7.36912 -0.169813 9.60487 -0.0 0.0 -0.0 11.1026 -4.11343 22.1665 -10.7415 -33.0239 54.2249 1.1141 -28.8931 0.287026 45.2935 -0.65284 -5.60056 -0.274156 -11.9583 -6.94629 -0.0 0.0 -0.0 2.49987 -16.1012 -5.82791 -33.3868 29.4325 -59.1265 0.474875 13.2377 -0.0551037 57.1741 1.5289 6.8412 0.37269 13.2756 3.13569 0.0 0.0 0.0 17.7402 -6.40624 -1.39698 -0.407394 0.0165606 0.0603254 9.78356 -19.4401 -1.56642 -2.13599 0.0 0.0 -0.0 0.0 -0.0 29.2918 -14.8526 8.23051 -41.5915 0.571113 -6.21962 17.5417 5.35701 2.48186 21.5183 -0.0 -0.0 0.0 0.0 0.0 
777.756649242 614.417 -1876.62747083 -10.1949773463 44.8932626533 13.6047322899 5.39311 -0.495581 -3.31904 5.39919 -0.283499 -3.34381 5.40981 0.109863 -3.35399 5.39436 -0.420917 -3.32932 -7.60921 2.41418 9.35805 -7.35917 -2.19805 9.82469 -0.0 0.0 -0.0 10.9053 -2.54407 21.6773 -10.4537 -32.7805 52.8162 1.29501 -32.6791 0.379673 45.0347 -0.636701 -5.57163 -0.0547964 -11.8587 -5.41679 -0.0 0.0 -0.0 2.72957 -13.2529 -6.05974 -34.5761 29.4496 -59.2336 0.569031 15.7423 -0.0786683 58.4778 1.6403 6.96574 0.473787 12.0872 1.94434 0.0 0.0 0.0 17.9234 -2.42547 -4.66516 -4.39195 0.15575 0.655873 13.0773 -20.549 -2.08564 -1.51832 0.0 0.0 -0.0 0.0 -0.0 29.3394 -24.6388 7.7944 -28.1624 -0.110051 -4.27716 15.7573 7.73307 2.27085 21.7953 -0.0 -0.0 0.0 0.0 0.0 
774.037141151 612.849 -1883.74156241 -11.0444570547 45.8452461115 14.5422973779 5.65432 -0.528913 -3.18264 5.65989 -0.325429 -3.20981 5.67226 0.0376621 -3.22603 5.65805 -0.472037 -3.19156 -7.59736 1.76696 8.66441 -7.38133 -2.90592 9.00001 -0.0 0.0 -0.0 10.762 -2.38773 21.3646 -9.43885 -32.1245 53.7677 1.31602 -33.0995 0.391083 44.307 -0.592036 -5.48993 0.240079 -11.7026 -3.35651 -0.0 0.0 -0.0 2.5043 -13.7123 -5.71225 -34.6681 30.1417 -59.8415 0.615597 16.9591 -0.0917781 58.3928 1.63295 6.9577 0.488924 13.5283 2.46134 0.0 0.0 0.0 18.2356 -2.87342 -5.43594 -5.82615 0.195658 0.872352 13.4887 -21.176 -2.16 -1.26192 0.0 0.0 -0.0 0.0 -0.0 29.3099 -29.0123 6.76026 -19.4271 -0.302016 -2.95168 12.6503 8.81344 1.85755 21.6401 -0.0 -0.0 0.0 0.0 0.0 
721.525687035 613.755 -1925.34891012 -10.1831228015 51.1644182443 14.5063287494 5.87995 -0.328903 -3.11817 5.88535 -0.129918 -3.13276 5.88652 0.211844 -3.1283 5.87298 -0.284624 -3.12252 -8.13218 2.41388 7.62939 -7.96743 -0.884427 8.08354 -0.0 0.0 -0.0 9.3575 3.57163 18.1608 -16.711 -35.3135 55.4936 1.61218 -38.6088 0.564749 47.8818 -0.821379 -5.88574 0.288467 -2.83804 0.738143 -0.0 0.0 -0.0 0.944592 -17.7885 -3.52649 -27.9527 31.9185 -61.4373 0.686739 18.7879 -0.113615 54.4752 1.30749 6.57559 1.77824 26.3075 -0.354275 0.0 0.0 0.0 15.7977 -4.34553 -7.87568 -14.0126 0.318905 2.12141 14.7055 -20.9297 -2.33607 1.50223 -0.0 -0.0 -0.0 0.0 -0.0 22.1607 -33.986 4.56188 -13.5713 -0.316823 -2.05374 15.1356 9.19355 2.20327 18.4546 -0.0 -0.0 0.0 0.0 0.0 
715.904170113 613.882 -1931.73624275 -10.5930946359 51.3069341571 14.6050198721 5.97269 -0.329742 -3.05784 5.97788 -0.134589 -3.07261 5.97926 0.195666 -3.06933 5.96624 -0.2913 -3.06174 -7.95592 2.14661 7.20666 -7.80851 -1.10635 7.61193 -0.0 0.0 -0.0 9.01642 5.0571 17.4021 -17.1046 -34.5987 56.6919 1.62923 -38.903 0.575422 48.2941 -0.849409 -5.93045 0.240517 -2.30501 0.640334 -0.0 0.0 -0.0 0.309788 -18.4567 -2.6263 -26.0883 31.8415 -62.8115 0.687772 18.8141 -0.113948 53.1983 1.20717 6.44638 1.91691 27.5935 -0.633605 0.0 0.0 0.0 15.7096 -3.88516 -7.83083 -13.8988 0.318419 2.10397 13.5441 -21.6025 -2.17727 1.20155 -0.0 -0.0 -0.0 0.0 -0.0 21.7888 -34.8142 4.55053 -13.6624 -0.317296 -2.06771 15.493 9.039 2.2499 18.022 -0.0 -0.0 0.0 0.0 0.0 
716.514169166 613.882 -1932.53061772 -10.561097647 51.1693504178 14.5639852288 5.97269 -0.329742 -3.05784 5.97788 -0.134589 -3.07261 5.97926 0.195666 -3.06933 5.96624 -0.2913 -3.06174 -7.95592 2.14661 7.20666 -7.80851 -1.10635 7.61193 -0.0 0.0 -0.0 9.01642 5.0571 17.4021 -17.1046 -34.5987 56.6919 1.62923 -38.903 0.575422 48.2941 -0.849409 -5.93045 0.240517 -2.30501 0.640334 -0.0 0.0 -0.0 0.309788 -18.4567 -2.6263 -26.0883 31.8415 -62.8115 0.687772 18.8141 -0.113948 53.1983 1.20717 6.44638 1.91691 27.5935 -0.633605 0.0 0.0 0.0 15.7096 -3.88516 -7.83083 -13.8988 0.318419 2.10397 13.5441 -21.6025 -2.17727 1.20155 -0.0 -0.0 -0.0 0.0 -0.0 21.7888 -34.8142 4.55053 -13.6624 -0.317296 -2.06771 15.493 9.039 2.2499 18.022 -0.0 -0.0 0.0 0.0 0.0 
716.955592528 613.882 -1933.10296837 -10.538162904 51.070051317 14.5345235185 5.97269 -0.329742 -3.05784 5.97788 -0.134589 -3.07261 5.97926 0.195666 -3.06933 5.96624 -0.2913 -3.06174 -7.95592 2.14661 7.20666 -7.80851 -1.10635 7.61193 -0.0 0.0 -0.0 9.01642 5.0571 17.4021 -17.1046 -34.5987 56.6919 1.62923 -38.903 0.575422 48.2941 -0.849409 -5.93045 0.240517 -2.30501 0.640334 -0.0 0.0 -0.0 0.309788 -18.4567 -2.6263 -26.0883 31.8415 -62.8115 0.687772 18.8141 -0.113948 53.1983 1.20717 6.44638 1.91691 27.5935 -0.633605 0.0 0.0 0.0 15.7096 -3.88516 -7.83083 -13.8988 0.318419 2.10397 13.5441 -21.6025 -2.17727 1.20155 -0.0 -0.0 -0.0 0.0 -0.0 21.7888 -34.8142 4.55053 -13.6624 -0.317296 -2.06771 15.493 9.039 2.2499 18.022 -0.0 -0.0 0.0 0.0 0.0 
709.584431044 612.035 -1937.88683936 -9.95094247962 50.7090347378 14.1056313204 5.98998 -0.370001 -3.09666 5.9953 -0.1723 -3.11391 5.99865 0.161496 -3.11449 5.98526 -0.332164 -3.10095 -7.93952 2.33022 6.9156 -7.80442 -0.558743 7.36209 -0.0 0.0 -0.0 7.98066 4.98092 15.4072 -18.0895 -34.186 58.354 1.73349 -40.6498 0.642135 50.9914 -1.04069 -6.21797 0.191548 -3.13859 -0.0399067 -0.0 0.0 -0.0 -0.563954 -18.09 -1.26014 -25.7021 35.6846 -63.5895 0.706452 19.2878 -0.120046 51.6924 1.09261 6.2912 1.87463 26.4975 -0.883713 0.0 0.0 0.0 15.9973 -0.479986 -8.64981 -15.9924 0.321831 2.42515 13.7539 -21.4043 -2.20462 2.61451 -0.0 -0.0 -0.0 0.0 -0.0 21.2697 -36.498 4.81276 -13.7148 -0.317557 -2.07575 15.762 11.9278 2.32376 17.9661 -0.0 -0.0 0.0 0.0 0.0 
700.984079918 612.403 -1943.69086701 -10.3875978367 51.9366782586 14.5411435521 6.12432 -0.356686 -2.9628 6.12919 -0.167518 -2.97947 6.13221 0.144919 -2.98066 6.11996 -0.327427 -2.96617 -7.53098 1.9351 5.54198 -7.44427 -0.36046 5.92173 -0.0 0.0 -0.0 7.51852 5.6316 14.5028 -18.8158 -33.9541 59.8807 1.69004 -39.9326 0.614038 50.0014 -0.968911 -6.11348 0.886836 -4.09873 4.23892 -0.0 0.0 -0.0 -0.727063 -19.1165 -1.14833 -25.5974 36.9365 -63.6207 0.75811 20.5834 -0.13766 49.896 0.961375 6.10228 1.96257 27.5247 -0.957769 0.0 0.0 0.0 16.2403 -0.363059 -8.99156 -17.3472 0.317785 2.63297 12.6343 -21.0431 -2.02844 3.37718 -0.0 -0.0 -0.0 0.0 -0.0 20.1123 -39.3527 4.70275 -13.0046 -0.313385 -1.96687 16.6017 13.7981 2.46749 17.4909 -0.0 -0.0 0.0 0.0 0.0 
695.847330053 614.323 -1946.64415454 -11.1451551004 53.3633754823 15.6202346227 6.24485 -0.499464 -3.01154 6.24984 -0.30691 -3.03719 6.26003 0.00531781 -3.05264 6.24734 -0.476634 -3.01524 -7.21305 0.0500137 3.14357 -7.18372 -2.16859 3.14814 -0.0 0.0 -0.0 7.60808 4.75568 14.7021 -21.2943 -32.3955 61.5482 1.60798 -38.5361 0.562134 51.592 -1.08512 -6.28075 0.295955 -2.4235 0.962734 -0.0 0.0 -0.0 -0.859556 -20.4375 -1.13014 -21.9939 36.823 -63.8867 0.744416 20.242 -0.132884 45.8351 0.687033 5.66085 2.34899 27.815 -3.28082 0.0 0.0 0.0 15.71 -2.62148 -9.15066 -16.694 0.32035 2.53279 8.39944 -20.7431 -1.36866 0.189791 -0.0 -0.0 -0.0 0.0 -0.0 18.7443 -39.8668 3.38556 -12.1291 -0.306383 -1.83272 15.3737 11.622 2.26632 15.8432 -0.0 -0.0 0.0 0.0 0.0 
699.438456454 614.323 -1951.27563838 -10.9489711756 52.605736189 15.3745413259 6.24485 -0.499464 -3.01154 6.24984 -0.30691 -3.03719 6.26003 0.00531781 -3.05264 6.24734 -0.476634 -3.01524 -7.21305 0.0500137 3.14357 -7.18372 -2.16859 3.14814 -0.0 0.0 -0.0 7.60808 4.75568 14.7021 -21.2943 -32.3955 61.5482 1.60798 -38.5361 0.562134 51.592 -1.08512 -6.28075 0.295955 -2.4235 0.962734 -0.0 0.0 -0.0 -0.859556 -20.4375 -1.13014 -21.9939 36.823 -63.8867 0.744416 20.242 -0.132884 45.8351 0.687033 5.66085 2.34899 27.815 -3.28082 0.0 0.0 0.0 15.71 -2.62148 -9.15066 -16.694 0.32035 2.53279 8.39944 -20.7431 -1.36866 0.189791 -0.0 -0.0 -0.0 0.0 -0.0 18.7443 -39.8668 3.38556 -12.1291 -0.306383 -1.83272 15.3737 11.622 2.26632 15.8432 -0.0 -0.0 0.0 0.0 0.0 
